<svg id="Capa_1" data-name="Capa 1" xmlns="http://www.w3.org/2000/svg" viewBox="0 0 2075.68 1832.62"><path d="M2000.35,2090.83c74.16-196.07,149.57-391.67,223-588,9-24.22,21.91-34.57,48.45-33.51,47.82,1.91,95.81,1.71,143.66.18,27.78-.89,39.72,7.77,39.65,37.33q-1,394.2.1,788.39c.07,28.61-10.28,39-39,37.57-40-2-80.37-2.49-120.33.1-33.13,2.15-42.71-11.09-42.39-42.32,1.11-108.73.35-217.48.3-326.22,0-12.28,0-24.56-6.79-38.19-44,110.93-87.53,222.07-132.23,332.73-35.14,87-13.47,73.76-105.62,72.91-127.71-1.17-91.6,22.39-141-95.94-38.72-92.78-74.08-187-111.06-280.46-4-10.22-8.91-20.1-19.28-28.44q0,176.23,0,352.46c0,52.84,0,52.86-54.06,52.88-36.25,0-72.59-1.65-108.71.46-29.36,1.72-38.28-9.7-38.07-38,1-130.74.43-261.5.43-392.25,0-129.46.92-258.92-.67-388.36-.42-33.92,10.56-46.48,44.53-44.88,45.21,2.12,90.68,2.25,135.87-.06,29.84-1.52,43.17,10.56,53.31,37.64,72.78,194.45,147.07,388.33,220.88,582.4Z" transform="translate(-379.48 -501.01)"/><path d="M581.2,1926.4q0,176.53,0,353.09c0,52.66-.22,52.69-54,52.78-33.65.05-67.48-2.17-100.9.58-35.27,2.9-47.51-8.3-46.76-45.1,2.27-110,.81-220,.81-330,0-148.85,1-297.71-.75-446.54-.39-33.41,11.25-43.1,42.44-41.75,41.34,1.78,83.24,4.12,124.11-.62,44.3-5.14,60.57,19.19,73.5,53.4q103.27,273.24,207.29,546.2c3,7.9,3.08,18.36,16.44,24.05q55.54-145.37,110.87-290.32c37-97.63,74.28-195.18,110.07-293.27,10.22-28,24.72-41.58,56.59-39.71,46.43,2.71,93.17,1.45,139.74.4,25.45-.58,37.54,6.8,37.46,35.16q-1.1,398,0,796c0,23.77-8.77,32.37-31.91,31.82-41.4-1-83-2.23-124.21.36-34.13,2.14-45.54-10.38-45.13-44,1.36-110,.47-220,.44-330,0-9,0-18-7.58-29.39-48.93,123.35-100.25,245.83-147.36,369.87-9.32,24.9-22.52,34.65-48.5,33.34-32.27-1.63-65-3.22-97,.36-36.82,4.13-53.66-12.87-65.72-44.39-47.36-120.91-92.45-243-142.74-362.62Z" transform="translate(-379.48 -501.01)"/><path d="M1699.23,548c-159.08,167.83-323.77,324.74-484.9,490.07-12.64,12.78-19.56,11.19-31.79,1.34-47.19-38-47.6-40.87-4.23-84.23q218.13-218,436.43-435.91c8.23-8.19,15.72-25.38,31.07-15.07C1664.72,516.92,1681.31,533.08,1699.23,548Z" transform="translate(-379.48 -501.01)"/><path d="M1224.67,658c-.12,20.7-9.06,25.18-15.19,31.41-20.82,21.14-41,43-63.13,62.71-19.29,17.19-22.25,29.87-1.25,49.43,35.09,32.69,31,53.3-9.67,79.81-11,7.15-19.36,6.14-27.58-1.92-31.4-30.8-62.22-62.2-93.82-92.79-10.27-9.95-7.54-16.84,1.25-25.53,45.09-44.57,90.12-89.2,134.55-134.43,14.38-14.64,25.55-12.65,39.15,1C1201.63,640.37,1216.3,651,1224.67,658Z" transform="translate(-379.48 -501.01)"/><path d="M1714.56,768.28c-14.42-10.91-28.77-21.93-43.3-32.71-21.63-16-14-30.58,3.42-42.44,17.11-11.67,26.48-49.71,57.69-19,12.89,12.68,25.85,25.31,38.42,38.31,19.69,20.36,53,40,54.49,61.85,1.38,19.65-31.07,42.81-50.53,62.51-28.87,29.25-60.18,56.09-89.08,85.31-24.33,24.6-35.91,1.28-50.1-11.53-14.56-13.15-30.72-26.19-8.23-47.18,22.65-21.13,43.88-43.79,65.51-66C1699,791.14,1707.37,786.1,1714.56,768.28Z" transform="translate(-379.48 -501.01)"/></svg>